<svg width="20" height="20" viewBox="0 0 20 20" fill="none" xmlns="http://www.w3.org/2000/svg">
<path d="M10 5.83333C10.9205 5.83333 11.6667 5.08714 11.6667 4.16667C11.6667 3.24619 10.9205 2.5 10 2.5C9.07954 2.5 8.33334 3.24619 8.33334 4.16667C8.33334 5.08714 9.07954 5.83333 10 5.83333Z" fill="white"/>
<path d="M10 11.6667C10.9205 11.6667 11.6667 10.9205 11.6667 9.99999C11.6667 9.07952 10.9205 8.33333 10 8.33333C9.07954 8.33333 8.33334 9.07952 8.33334 9.99999C8.33334 10.9205 9.07954 11.6667 10 11.6667Z" fill="white"/>
<path d="M10 17.5C10.9205 17.5 11.6667 16.7538 11.6667 15.8333C11.6667 14.9129 10.9205 14.1667 10 14.1667C9.07954 14.1667 8.33334 14.9129 8.33334 15.8333C8.33334 16.7538 9.07954 17.5 10 17.5Z" fill="white"/>
</svg>
