<svg xmlns="http://www.w3.org/2000/svg"><symbol id="ico-adjustments"><path stroke="#333" stroke-linecap="round" stroke-linejoin="round" stroke-width="1.6" d="M12 6V4m0 2a2 2 0 0 0 0 4m0-4a2 2 0 0 1 0 4m0 0v10m-6-2a2 2 0 1 0 0-4m0 4a2 2 0 1 1 0-4m0 4v2m0-6V4m12 14a2 2 0 0 0 0-4m0 4a2 2 0 0 1 0-4m0 4v2m0-6V4"/></symbol><symbol id="ico-annotation"><path stroke="#333" stroke-linecap="round" stroke-linejoin="round" stroke-width="1.6" d="M7 8h10M7 12h4m1 8l-4-4H5a2 2 0 0 1-2-2V6a2 2 0 0 1 2-2h14a2 2 0 0 1 2 2v8a2 2 0 0 1-2 2h-3l-4 4z"/></symbol><symbol id="ico-alert"><path stroke="#333" stroke-linecap="round" stroke-width="1.6" d="M12 8v6m0 3v.01M23 12c0 6.075-4.925 11-11 11S1 18.075 1 12 5.925 1 12 1s11 4.925 11 11z"/></symbol><symbol id="ico-alert-sign"><path fill="#333" d="M20.414 14.496l-.708.372.708-.372zm-4.178-7.928l.708-.373-.707.373zm-8.473 0l-.707-.373.707.373zm-4.177 7.928l.708.372-.708-.372zM13.269 2.27l.328-.73-.328.73zm-2.538 0l.329.73-.329-.73zm10.017 18.222l.443.666-.443-.666zm1.232-1.891l-.79-.123.79.123zm-18.728 1.89l-.443.667.443-.666zm-1.232-1.89l.79-.123-.79.123zM12.8 8.996a.8.8 0 0 0-1.6.008l1.6-.008zm-1.578 5.008a.8.8 0 0 0 1.6-.008l-1.6.008zM12.8 17a.8.8 0 0 0-1.6 0h1.6zm-1.6.01a.8.8 0 0 0 1.6 0h-1.6zM7.822 21.8h8.355v-1.6H7.822v1.6zm13.3-7.677l-4.178-7.928-1.415.746 4.177 7.927 1.416-.745zM7.056 6.195l-4.178 7.928 1.416.745L8.47 6.941l-1.415-.746zm9.888 0c-.674-1.28-1.205-2.29-1.687-3.028-.477-.73-.983-1.32-1.66-1.626l-.657 1.46c.245.11.542.374.977 1.041.431.66.922 1.59 1.612 2.899l1.415-.746zm-8.473.746c.69-1.309 1.18-2.239 1.612-2.899.435-.667.732-.931.977-1.041l-.657-1.46c-.677.305-1.183.896-1.66 1.626-.482.738-1.013 1.748-1.687 3.028l1.415.746zm5.126-5.4a3.905 3.905 0 0 0-3.194 0l.657 1.46a2.305 2.305 0 0 1 1.88 0l.657-1.46zm2.58 20.259c1.255 0 2.247 0 3.02-.066.77-.067 1.442-.208 1.994-.575l-.885-1.333c-.213.141-.557.254-1.247.314-.687.06-1.598.06-2.882.06v1.6zm3.53-6.932c.574 1.092.978 1.86 1.227 2.464.25.607.29.928.256 1.146l1.58.247c.103-.658-.073-1.312-.357-2.002-.284-.69-.731-1.538-1.291-2.6l-1.416.745zm1.484 6.291a3.594 3.594 0 0 0 1.58-2.434l-1.581-.247a1.994 1.994 0 0 1-.884 1.348l.885 1.333zM7.822 20.2c-1.283 0-2.194 0-2.88-.06-.69-.06-1.035-.173-1.248-.314L2.81 21.16c.552.367 1.224.508 1.994.575.773.067 1.765.066 3.02.066v-1.6zm-4.944-6.077c-.56 1.062-1.007 1.91-1.292 2.6-.283.69-.459 1.344-.357 2.002l1.581-.247c-.034-.218.006-.539.256-1.146.249-.604.653-1.372 1.228-2.464l-1.416-.745zm.816 5.703a1.994 1.994 0 0 1-.884-1.348l-1.58.247a3.593 3.593 0 0 0 1.58 2.434l.884-1.333zM11.2 9.004l.022 5 1.6-.008-.022-5-1.6.008zm0 7.996v.01h1.6V17h-1.6z"/></symbol><symbol id="ico-archive"><path stroke="#333" stroke-linecap="round" stroke-linejoin="round" stroke-width="1.6" d="M5 8h14M5 8a2 2 0 1 1 0-4h14a2 2 0 0 1 0 4M5 8v10a2 2 0 0 0 2 2h10a2 2 0 0 0 2-2V8m-9 4h4"/></symbol></svg>